Coordinates
version=1
nRows=20
nColumns=34
inDegrees=yes

Units are S.I. units (second, meters, Newtons, ...)
If the header above contains a line with 'inDegrees', this indicates whether rotational values are in degrees (yes) or radians (no).

endheader
time	pelvis_tilt	pelvis_list	pelvis_rotation	pelvis_tx	pelvis_ty	pelvis_tz	hip_flexion_r	hip_adduction_r	hip_rotation_r	knee_angle_r	ankle_angle_r	subtalar_angle_r	mtp_angle_r	hip_flexion_l	hip_adduction_l	hip_rotation_l	knee_angle_l	ankle_angle_l	subtalar_angle_l	mtp_angle_l	lumbar_extension	lumbar_bending	lumbar_rotation	arm_flex_r	arm_add_r	arm_rot_r	elbow_flex_r	pro_sup_r	arm_flex_l	arm_add_l	arm_rot_l	elbow_flex_l	pro_sup_l
      5.98333330	     -1.11067509	    -13.88799226	    -53.00248876	      2.02108840	      1.07658826	      3.74592000	     -2.44366883	      7.46938993	     -5.23207930	     17.01835468	     14.56426606	      6.79002238	      0.00000000	      6.34952756	     -7.40078269	     -5.18179314	     31.17074660	     13.42294396	      0.97537184	      0.00000000	    -13.76776275	      8.65002927	     -3.54854407	      9.51286833	     -3.72060743	     11.85516676	     18.25376900	    119.67569511	      9.37734956	     -6.91186922	     16.84596612	     15.61589949	    113.07757676
      6.00000000	     -1.13403220	    -13.87421369	    -52.69492474	      2.02322421	      1.07607456	      3.74851884	     -2.61020760	      7.54869388	     -5.28823785	     17.08831303	     14.86194218	      6.63767090	      0.00000000	      6.48993657	     -7.40668241	     -5.12585077	     30.82153563	     13.21177916	      1.11357303	      0.00000000	    -13.72738891	      8.88029576	     -3.22326512	      9.42597871	     -4.01935907	     11.84978513	     18.11469995	    119.66943751	      9.31001907	     -6.51753782	     16.82360045	     15.64764075	    113.05700798
      6.01666670	     -1.18247177	    -13.85635545	    -52.48117708	      2.02492434	      1.07573404	      3.75127688	     -2.80406754	      7.65852348	     -5.40786753	     17.03558542	     15.18549026	      6.49046952	      0.00000000	      6.59682884	     -7.42357210	     -5.01004164	     30.51299503	     12.88662001	      1.29758180	      0.00000000	    -13.71841820	      9.06948953	     -2.80587012	      9.40390584	     -4.27797061	     11.85834473	     18.00688220	    119.66467748	      9.29974469	     -6.19955943	     16.75300043	     15.62984673	    113.01855027
      6.03333330	     -1.11126097	    -14.05358334	    -52.36672966	      2.02606107	      1.07614275	      3.75410459	     -3.47087617	      7.82575999	     -5.42806490	     16.55502090	     15.28456128	      6.84199661	      0.00000000	      6.51683094	     -7.53358941	     -4.84746254	     30.43067742	     12.29332893	      1.17643230	      0.00000000	    -14.04678737	      9.21902524	     -2.32467982	      9.48400014	     -4.44829435	     12.03130213	     18.13700110	    119.62829723	      9.54954261	     -5.83839900	     16.04210638	     15.01627680	    112.68453299
      6.05000000	     -1.00610651	    -13.96795945	    -52.12262073	      2.02794390	      1.07622872	      3.75690049	     -3.81640544	      7.75491318	     -5.51483596	     16.31313908	     15.41259955	      6.81076829	      0.00000000	      6.76699937	     -7.42885834	     -5.15043992	     30.54800562	     12.22521916	      1.00668471	      0.00000000	    -14.04915697	      9.24788387	     -2.15084665	      9.64735821	     -4.55999063	     12.03375497	     18.15896205	    119.61828466	      9.54396539	     -5.63080700	     15.98477671	     15.07314921	    112.64854113
      6.06666670	     -0.65988819	    -14.38255558	    -51.83203712	      2.03036596	      1.07753880	      3.76126430	     -5.41666583	      7.92965938	     -5.43858772	     15.01184523	     15.30512626	      7.34317809	      0.00000000	      6.34975118	     -7.53971720	     -5.98103025	     30.70623745	     11.62312852	     -0.31477872	      0.00000000	    -14.49128133	      9.25209924	     -2.09200374	      9.68332520	     -4.55226230	     12.22688015	     18.30633898	    119.48574190	      9.33714323	     -5.44580816	     14.95331346	     15.01989348	    112.09194785
      6.08333330	     -0.54370290	    -14.26531695	    -51.58261620	      2.03239472	      1.07795936	      3.76529286	     -6.03054346	      7.90441616	     -5.55167454	     14.34540080	     15.38780648	      7.37075848	      0.00000000	      6.68421154	     -7.54268991	     -6.94595925	     31.03496623	     11.24788427	     -1.06947004	      0.00000000	    -14.38597211	      9.05809281	     -2.16207649	      9.72914158	     -4.40829820	     12.26645055	     18.37674837	    119.45566829	      9.02844688	     -5.44255923	     14.81489380	     14.92276495	    112.00555457
      6.10000000	     -0.25219297	    -14.51572442	    -51.74692241	      2.03449675	      1.07941360	      3.76862574	     -7.26929879	      7.88869849	     -5.03940641	     13.26972601	     15.05883883	      7.68949875	      0.00000000	      6.12702893	     -7.14342525	     -6.87824234	     30.46612944	      9.33267511	     -3.81255383	      0.00000000	    -14.90144106	      8.93071830	     -1.72215134	      9.87896131	     -4.60110277	     12.49977442	     18.46981064	    119.18663961	      8.66777418	     -5.16822953	     13.83990727	     15.11839183	    111.34165430
      6.11666670	     -0.49674078	    -14.41104828	    -51.84343759	      2.03613891	      1.07983690	      3.77183064	     -7.66226035	      8.08759241	     -5.03571215	     12.46694712	     14.85722474	      8.04279773	      0.00000000	      6.50656878	     -7.34557703	     -7.46137020	     30.25679141	      7.87803733	     -4.21346093	      0.00000000	    -14.66174490	      8.96155594	     -1.39067443	      9.85223013	     -4.73565133	     12.52440159	     18.47883758	    119.15880920	      8.32843205	     -4.95023027	     13.84068893	     15.29626185	    111.30268883
      6.13333330	     -0.08145285	    -14.32951954	    -52.47588322	      2.03743141	      1.08158667	      3.77520027	     -8.54436054	      7.68351849	     -4.05808785	     11.61964850	     14.50523293	      8.03056355	      0.00000000	      5.85868476	     -6.53700632	     -7.05283446	     29.09599921	      5.32000662	     -6.57325216	      0.00000000	    -14.97310361	      8.44628522	     -0.36792838	      9.75251245	     -5.05166276	     12.95445167	     18.87311424	    119.02620643	      8.15817734	     -4.63038932	     13.24346028	     15.78339741	    110.85892011
      6.15000000	      0.41227967	    -14.04231834	    -52.80833651	      2.03944209	      1.08312608	      3.77920916	     -9.35756784	      7.11844985	     -3.32987665	     10.79555726	     14.46036144	      7.92300923	      0.00000000	      5.39644875	     -5.80964036	     -6.84856823	     28.19332788	      4.02315930	     -6.17662642	      0.00000000	    -14.89679752	      7.83136770	      0.27193529	      9.42415478	     -5.20724198	     13.36124767	     19.31732692	    118.96195085	      7.82529221	     -4.52197787	     12.75193107	     16.45278934	    110.54635924
      6.16666670	      0.43004550	    -13.61053812	    -53.03784680	      2.04172519	      1.08381690	      3.78190142	     -9.51543665	      6.78228067	     -2.98189631	     10.22342765	     14.29820562	      8.14103322	      0.00000000	      5.63923513	     -5.41741834	     -6.43977347	     27.62893926	      2.95297751	     -5.36349550	      0.00000000	    -14.45754786	      7.71092792	      0.71852217	      9.45098915	     -5.36942951	     13.41358117	     19.45337488	    118.95757103	      7.83298710	     -4.23618403	     12.69063502	     16.76682927	    110.50801837
      6.18333330	      1.52918221	    -13.22531016	    -54.05521699	      2.04387118	      1.08628037	      3.78602022	    -10.51876420	      5.45869209	     -1.14948990	      9.58577998	     14.11884070	      7.24636070	      0.00000000	      3.89148419	     -3.88954957	     -6.53970118	     25.13731291	      0.85239231	     -5.53267869	      0.00000000	    -14.68968214	      6.44325604	      1.76047777	      9.27202625	     -5.47023937	     13.58466970	     20.16420666	    118.84752117	      7.38890924	     -4.01737482	     11.35092527	     17.74782762	    110.00465977
      6.20000000	      2.20060971	    -12.65827242	    -54.64503313	      2.04585337	      1.08780693	      3.79022093	    -10.94369385	      4.48417121	      0.12778494	      9.14334553	     13.98634432	      6.44262346	      0.00000000	      2.77525863	     -2.71195279	     -6.06001863	     22.73682388	     -0.31288587	     -4.31396740	      0.00000000	    -14.34171117	      5.43282454	      2.22561565	      8.91917038	     -5.39007041	     13.45479946	     20.96136796	    118.74467858	      6.88512295	     -3.95045748	     10.04394921	     18.63652760	    109.66978627
      6.21666670	      2.64015669	    -11.90044802	    -55.24708992	      2.04782431	      1.08889330	      3.79512086	    -11.03738923	      3.58936039	      1.19466486	      8.83284029	     14.24445732	      5.96680124	      0.00000000	      1.81173988	     -1.70571398	     -5.77595377	     20.11163229	     -1.31084713	     -2.73728399	      0.00000000	    -13.46303594	      4.47893358	      2.49677064	      8.32336373	     -5.29282688	     13.31851305	     21.82040434	    118.71214018	      6.15101442	     -3.93289807	      9.03398894	     19.17414418	    109.48093786
      6.23333330	      3.11687639	    -11.45480753	    -56.47709653	      2.04892987	      1.09051877	      3.80016058	    -11.16986897	      2.71536110	      2.81147480	      8.82090690	     14.00128668	      5.39864986	      0.00000000	      0.04238766	     -0.75078346	     -5.72720785	     16.71827192	     -2.24503148	     -1.26338806	      0.00000000	    -13.02890152	      3.57370824	      3.44998529	      7.90900011	     -5.23317828	     12.94976985	     22.51236758	    118.74036235	      5.45511847	     -3.65674915	      6.98921373	     19.85481730	    109.22246174
      6.25000000	      3.13974282	    -10.60057318	    -57.09120388	      2.05042465	      1.09052801	      3.80356820	    -10.36325753	      2.10554001	      3.78172808	      9.30811861	     14.33733769	      4.93778231	      0.00000000	     -0.77332471	      0.02002769	     -4.85073126	     13.60703479	     -2.54136203	      0.63598012	      0.00000000	    -12.01554925	      3.00651034	      3.61744875	      7.58187128	     -5.25408924	     12.90809372	     23.37579264	    118.84580712	      4.95745995	     -3.56824397	      6.03311841	     20.07173238	    109.17145205
      6.26666670	      2.97656425	     -9.96775371	    -58.01967146	      2.05098475	      1.09024862	      3.80646244	     -9.35318005	      1.80256961	      5.13431533	     10.18593269	     14.73944261	      4.21632828	      0.00000000	     -2.06000117	      0.44850863	     -4.33006541	      9.72193550	     -2.26623122	      2.89286213	      0.00000000	    -11.25651628	      2.76654431	      4.29609482	      7.41154569	     -5.39939077	     12.90016992	     24.10650679	    119.09484096	      4.73541393	     -3.22414415	      4.42030590	     20.22727577	    109.11414212
      6.28333330	      2.38351627	     -9.42284078	    -58.24647226	      2.05256789	      1.08924649	      3.80764802	     -8.07749386	      1.99410540	      5.60543139	     11.21343338	     14.79985579	      3.93509369	      0.00000000	     -2.87222114	      0.41681954	     -2.65356876	      6.34099220	     -0.93181703	      4.65070986	      0.00000000	    -10.53877831	      3.30775406	      4.11095823	      7.51196784	     -5.59943202	     12.89651435	     24.50371008	    119.14997186	      4.62819659	     -2.85259766	      4.18511035	     20.21285978	    109.12074836
      6.30000000	      2.52115904	     -8.72180354	    -58.11545553	      2.05313489	      1.08793641	      3.80743062	     -6.67981713	      1.62091070	      6.46179127	     12.90326609	     15.61495830	      2.22217429	      0.00000000	     -3.77435347	      1.00456803	     -1.14951585	      3.13935568	      0.18543102	      7.02321830	      0.00000000	    -10.35574934	      3.01562398	      3.89367012	      7.47151913	     -5.86579721	     13.04145885	     25.59302815	    119.40949387	      5.00821695	     -2.68297166	      3.14881833	     20.04976556	    109.12336322
